<svg xmlns="http://www.w3.org/2000/svg" xmlns:xlink="http://www.w3.org/1999/xlink" viewBox="0 0 393.68 108.97"><defs><style>.cls-1{fill:#8c99cd;}.cls-2{fill:url(#linear-gradient);}.cls-3{fill:#282d33;}</style><linearGradient id="linear-gradient" y1="23.35" x2="108.97" y2="23.35" gradientUnits="userSpaceOnUse"><stop offset="0" stop-color="#ff2c6d"/><stop offset="0.4" stop-color="#cd74a6"/><stop offset="1" stop-color="#7fe4ff"/></linearGradient></defs><g id="Layer_2" data-name="Layer 2"><g id="Layer_1-2" data-name="Layer 1"><circle class="cls-1" cx="70.05" cy="38.92" r="7.78"/><circle class="cls-1" cx="101.19" cy="7.78" r="7.78"/><circle class="cls-1" cx="70.05" cy="7.78" r="7.78"/><circle class="cls-1" cx="38.92" cy="7.78" r="7.78"/><circle class="cls-1" cx="7.78" cy="7.78" r="7.78"/><circle class="cls-1" cx="7.78" cy="38.92" r="7.78"/><circle class="cls-2" cx="70.05" cy="38.92" r="7.78"/><circle class="cls-2" cx="101.19" cy="7.78" r="7.78"/><circle class="cls-2" cx="70.05" cy="7.78" r="7.78"/><circle class="cls-2" cx="38.92" cy="7.78" r="7.78"/><circle class="cls-2" cx="7.78" cy="7.78" r="7.78"/><circle class="cls-2" cx="7.78" cy="38.92" r="7.78"/><rect class="cls-3" x="215.17" y="17.2" width="10.93" height="65.61" rx="4.65"/><rect class="cls-3" x="329.98" y="17.2" width="10.93" height="65.61" rx="4.65"/><path class="cls-3" d="M182.36,28.14A20.73,20.73,0,0,0,171,31.53,5.46,5.46,0,0,0,160.5,33.6V88.27a5.47,5.47,0,1,0,10.93,0v-8.6a20.71,20.71,0,0,0,10.93,3.14c12.08,0,21.87-10.49,21.87-23.43V51.57C204.23,38.63,194.44,28.14,182.36,28.14Zm10.94,31.8c0,6.59-4.9,11.93-10.94,11.93s-10.93-5.34-10.93-11.93V51c0-6.59,4.9-11.93,10.93-11.93S193.3,44.41,193.3,51Z"/><path class="cls-3" d="M258.91,28.14h0C246.83,28.14,237,38.63,237,51.57v7.81c0,12.94,9.79,23.43,21.87,23.43h0c12.07,0,21.86-10.49,21.86-23.43V51.57C280.77,38.63,271,28.14,258.91,28.14Zm10.93,31.8c0,6.59-4.9,11.93-10.93,11.93S248,66.53,248,59.94V51c0-6.59,4.9-11.93,10.94-11.93S269.84,44.41,269.84,51Z"/><path class="cls-3" d="M313.58,71.87a11,11,0,0,1-10.94-10.93V39.07h10.94a5.47,5.47,0,0,0,0-10.93H302.64V22.67a5.47,5.47,0,1,0-10.93,0V60.94a21.89,21.89,0,0,0,21.87,21.87,5.47,5.47,0,0,0,0-10.94Z"/><path class="cls-3" d="M390.37,28.58a5.46,5.46,0,0,0-7.18,2.87L371.85,57.89,360.52,31.45a5.47,5.47,0,0,0-10,4.31l15.44,36-1.84,4.28a11,11,0,0,1-9.85,6.74,5.47,5.47,0,0,0,.13,10.93h.13A21.85,21.85,0,0,0,374.14,80.3l19.1-44.54A5.46,5.46,0,0,0,390.37,28.58Z"/><path class="cls-3" d="M7.78,62.27A7.78,7.78,0,0,0,0,70.05v31.14a7.79,7.79,0,0,0,15.57,0V70.05A7.79,7.79,0,0,0,7.78,62.27Z"/><path class="cls-3" d="M70.05,62.27a7.79,7.79,0,0,0-7.78,7.78v31.14a7.79,7.79,0,0,0,15.57,0V70.05A7.79,7.79,0,0,0,70.05,62.27Z"/><path class="cls-3" d="M38.92,31.14a7.78,7.78,0,0,0-7.78,7.78v62.27a7.78,7.78,0,0,0,15.56,0V38.92A7.78,7.78,0,0,0,38.92,31.14Z"/><path class="cls-3" d="M101.19,31.14a7.78,7.78,0,0,0-7.78,7.78v62.27a7.78,7.78,0,0,0,15.56,0V38.92A7.78,7.78,0,0,0,101.19,31.14Z"/></g></g></svg>